<svg xmlns="http://www.w3.org/2000/svg" width="24.776" height="24.776" viewBox="0 0 24.776 24.776">
  <path id="Tracé_123" data-name="Tracé 123" d="M5041.074,34.254c-6.777.02-13.554.009-20.331.009h-.06a2.161,2.161,0,0,0-1.973,2.452c0,6.617.015,13.235-.012,19.852a2.274,2.274,0,0,0,2.464,2.463c3.168-.038,6.338-.017,9.507-.007.833,0,.964-.128.961-.961-.011-2.412-.006-4.824,0-7.235a1.769,1.769,0,0,0-.157-.908c-.964-.168-1.99.1-3.074-.177,0-1.246-.012-2.5.007-3.759.006-.346.29-.421.591-.419.618,0,1.236.006,1.854,0,.209,0,.429.075.666-.125a6.9,6.9,0,0,0,.152-2.145,6.459,6.459,0,0,1,5.579-5.743,23.31,23.31,0,0,1,2.393-.053.53.53,0,0,1,.6.6q.006,1.554,0,3.109c0,.428-.247.6-.656.6-.458,0-.917,0-1.375,0a2.144,2.144,0,0,0-2.268,2.273,2.807,2.807,0,0,0,.178,1.494h3.585a.431.431,0,0,1,.474.537c-.109,1.038-.211,2.077-.367,3.108a.708.708,0,0,1-.826.674c-.964-.05-1.933-.014-2.869-.014a1.708,1.708,0,0,0-.183.837q.009,3.708,0,7.415c0,.754.146.906.9.9,1.435-.012,2.871-.018,4.306,0a2.194,2.194,0,0,0,2.337-2.336q-.018-10.017,0-20.032A2.243,2.243,0,0,0,5041.074,34.254Z" transform="translate(-5018.698 -34.254)" fill="#343434"/>
</svg>
