<svg xmlns="http://www.w3.org/2000/svg" width="24.485" height="24.419" viewBox="0 0 24.485 24.419">
  <path id="Tracé_122" data-name="Tracé 122" d="M5083.841,34.2q-10.762.017-21.526.005h-.068c-.953.165-1.048.457-1.225,1.3a2.67,2.67,0,0,0,0,.545q0,10.388,0,20.774a2.449,2.449,0,0,0,.087,1.015,1.323,1.323,0,0,0,1.277.771q10.935-.02,21.868.009a1.29,1.29,0,0,0,1.227-1.112,4.215,4.215,0,0,0,0-.478q0-10.591.008-21.184C5085.492,34.8,5085.29,34.2,5083.841,34.2Zm-19.076,3.413a2.958,2.958,0,0,1,1.24-.743h.068a2.119,2.119,0,0,1,2.392,2.187,2.277,2.277,0,0,1-1.572,2.05,2.475,2.475,0,0,1-2.381-1.031A2.339,2.339,0,0,1,5064.765,37.614Zm3.29,17.765c-1.23.032-2.461.011-3.657.011a3.7,3.7,0,0,1-.164-1.708c-.012-3.007-.007-6.014,0-9.02,0-.352-.109-.768.407-.889h.069c1,0,2,0,3.007,0,.712,0,.816.106.818.819q.006,2.631,0,5.262c0,1.6,0,3.189,0,4.784C5068.538,55,5068.484,55.368,5068.055,55.379Zm14.046-.023h-3.849a1.2,1.2,0,0,1-.219-.922q0-2.631,0-5.262c0-1.133-.876-2.4-2.118-2.255-1.594.318-2.119.961-2.119,2.6s0,3.281,0,4.921a1.555,1.555,0,0,1-.2.956c-.715,0-1.49-.019-2.264.007-.555.019-.775-.2-.759-.758.025-.911.007-1.823.007-2.734q0-3.656,0-7.312c0-.743.075-.812.819-.819.478,0,.961.04,1.434-.011a.942.942,0,0,1,1.162.762,14.114,14.114,0,0,1,4.1-.761,4.259,4.259,0,0,1,4.166,4.178c.01,2.186,0,4.373,0,6.56A1.57,1.57,0,0,1,5082.1,55.356Z" transform="translate(-5061.004 -34.201)" fill="#343434"/>
</svg>
