<svg width="142" height="42" viewBox="0 0 142 42" fill="none" xmlns="http://www.w3.org/2000/svg">
<path d="M6.38112 14.8857L8.92381 5.70996H12.746L8.11915 19.311H4.62535L0 5.70996H3.83844L6.38112 14.8857Z" fill="#49BD72"/>
<path d="M11.8437 12.3809C11.8437 11.0464 12.1055 9.84228 12.6306 8.78467C13.1557 7.72705 13.9101 6.91406 14.8952 6.32812C15.8789 5.75977 17.0282 5.4668 18.3239 5.4668C20.1773 5.4668 21.6861 6.03516 22.8516 7.15869C24.0158 8.28076 24.6725 9.79394 24.8204 11.7129L24.853 12.6577C24.853 14.7393 24.2628 16.415 23.0809 17.6836C21.9005 18.9375 20.3252 19.5718 18.3565 19.5718C16.3714 19.5718 14.7961 18.9375 13.6157 17.6836C12.4339 16.415 11.8437 14.707 11.8437 12.5596V12.3809ZM15.5017 12.6577C15.5017 13.9424 15.7487 14.9355 16.2398 15.6182C16.7323 16.3008 17.4379 16.6436 18.3565 16.6436C19.2425 16.6436 19.9318 16.3008 20.4229 15.6182C20.9317 14.9517 21.1787 13.8618 21.1787 12.3809C21.1787 11.1123 20.9317 10.1353 20.4229 9.45264C19.9318 8.75244 19.2262 8.41113 18.3239 8.41113C17.4216 8.41113 16.7323 8.75244 16.2398 9.45264C15.7487 10.1353 15.5017 11.1929 15.5017 12.6577Z" fill="#49BD72"/>
<path d="M32.5801 15.5537C32.5801 15.1143 32.3656 14.7715 31.9233 14.5122C31.4633 14.2515 30.7592 14.0244 29.7741 13.8281C26.5096 13.1455 24.8855 11.7627 24.8855 9.6958C24.8855 8.4917 25.3943 7.48389 26.3942 6.6709C27.4119 5.87256 28.7402 5.4668 30.3643 5.4668C32.1038 5.4668 33.4987 5.87256 34.5474 6.68701C35.5813 7.5 36.1064 8.5415 36.1064 9.84228H32.4485C32.4485 9.32227 32.268 8.89893 31.9233 8.55762C31.595 8.21631 31.0699 8.05371 30.348 8.05371C29.7416 8.05371 29.249 8.2002 28.9206 8.47559C28.576 8.75244 28.4133 9.09375 28.4133 9.51709C28.4133 9.92432 28.61 10.2495 28.9872 10.4941C29.3807 10.7373 30.0197 10.9497 30.9397 11.1284C31.8583 11.3232 32.6126 11.5181 33.2354 11.7466C35.1879 12.4453 36.1552 13.6655 36.1552 15.4072C36.1552 16.6436 35.6139 17.6514 34.5474 18.416C33.4646 19.1807 32.0713 19.5718 30.3806 19.5718C29.2327 19.5718 28.1988 19.3594 27.3128 18.9697C26.4282 18.5625 25.7227 17.9941 25.2138 17.2939C24.705 16.5776 24.4595 15.813 24.4595 14.9839H27.937C27.9695 15.6343 28.1988 16.1382 28.6588 16.481C29.1011 16.8223 29.6928 16.9849 30.4471 16.9849C31.1527 16.9849 31.6941 16.8545 32.055 16.5937C32.3996 16.3345 32.5801 15.9756 32.5801 15.5537Z" fill="#49BD72"/>
<path d="M39.9952 5.70996L40.1091 7.23926C41.078 6.05273 42.39 5.4668 44.0466 5.4668C45.8187 5.4668 47.0316 6.14941 47.6884 7.53223C48.6395 6.14941 50.018 5.4668 51.8064 5.4668C53.2988 5.4668 54.4141 5.88867 55.136 6.75146C55.8578 7.61426 56.2187 8.89893 56.2187 10.623V19.311H52.5445V10.6392C52.5445 9.87451 52.3803 9.30615 52.0844 8.94727C51.7738 8.58984 51.2487 8.41113 50.4781 8.41113C49.3776 8.41113 48.6232 8.93115 48.1972 9.97266L48.2135 19.311H44.5392V10.6567C44.5392 9.87451 44.375 9.30615 44.0629 8.94727C43.7508 8.58984 43.2257 8.41113 42.4713 8.41113C41.4389 8.41113 40.683 8.85059 40.2245 9.6958V19.311H36.5502V5.70996H39.9952Z" fill="black"/>
<path d="M63.4045 19.5718C61.3869 19.5718 59.7465 18.9536 58.4833 17.7334C57.2364 16.5132 56.5959 14.8857 56.5959 12.8364V12.4951C56.5959 11.1123 56.8592 9.89209 57.3843 8.81836C57.9257 7.74463 58.68 6.91406 59.6474 6.32812C60.6325 5.75977 61.7478 5.4668 62.9948 5.4668C64.8644 5.4668 66.3406 6.05273 67.4234 7.22314C68.5061 8.39502 69.0475 10.0547 69.0475 12.2183V13.6978H60.3042C60.4181 14.5767 60.779 15.293 61.3706 15.8291C61.9771 16.3667 62.7315 16.6436 63.6338 16.6436C65.0612 16.6436 66.1602 16.1221 66.9486 15.1143L68.7532 17.1152C68.2118 17.896 67.4559 18.498 66.5211 18.9214C65.57 19.3433 64.5361 19.5718 63.4045 19.5718ZM62.9948 8.41113C62.2567 8.41113 61.665 8.65576 61.2227 9.12744C60.7627 9.61523 60.4683 10.314 60.353 11.209H65.4383V10.9321C65.4221 10.1191 65.2091 9.50098 64.7831 9.06152C64.3556 8.62207 63.7654 8.41113 62.9948 8.41113Z" fill="black"/>
<path d="M73.0339 19.311H69.3759V5.70996H73.0339V19.311ZM69.1466 2.17969C69.1466 1.64355 69.3271 1.18799 69.7043 0.846679C70.0652 0.487793 70.574 0.309082 71.213 0.309082C71.8372 0.309082 72.3283 0.487793 72.7055 0.846679C73.0664 1.18799 73.2631 1.64355 73.2631 2.17969C73.2631 2.74951 73.0664 3.20508 72.7055 3.54639C72.3283 3.90381 71.8195 4.06787 71.213 4.06787C70.5903 4.06787 70.0814 3.90381 69.7043 3.54639C69.3271 3.20508 69.1466 2.74951 69.1466 2.17969Z" fill="black"/>
<path d="M74.3134 0H77.9713V19.311H74.3134V0Z" fill="black"/>
<path d="M79.2523 0H82.9102V19.311H79.2523V0Z" fill="black"/>
<path d="M90.309 19.5718C88.29 19.5718 86.6496 18.9536 85.3864 17.7334C84.1232 16.5132 83.5004 14.8857 83.5004 12.8364V12.4951C83.5004 11.1123 83.7622 9.89209 84.2873 8.81836C84.8124 7.74463 85.5846 6.91406 86.5519 6.32812C87.5356 5.75977 88.6509 5.4668 89.8978 5.4668C91.769 5.4668 93.2452 6.05273 94.3279 7.22314C95.4107 8.39502 95.952 10.0547 95.952 12.2183V13.6978H87.2087C87.3226 14.5767 87.6835 15.293 88.2737 15.8291C88.8816 16.3667 89.636 16.6436 90.5383 16.6436C91.9657 16.6436 93.0647 16.1221 93.8516 15.1143L95.6562 17.1152C95.1148 17.896 94.3605 18.498 93.4094 18.9214C92.4745 19.3433 91.4406 19.5718 90.309 19.5718ZM89.8816 8.41113C89.1597 8.41113 88.5695 8.65576 88.1095 9.12744C87.6672 9.61523 87.3714 10.314 87.2575 11.209H92.3429V10.9321C92.3266 10.1191 92.1136 9.50098 91.6861 9.06152C91.2601 8.62207 90.6699 8.41113 89.8816 8.41113Z" fill="black"/>
<path d="M104.302 17.9443C103.383 19.0181 102.136 19.5718 100.545 19.5718C99.0686 19.5718 97.9371 19.1484 97.1664 18.3193C96.3943 17.4727 96.0009 16.2363 96.0009 14.6265V5.70996H99.6588V14.5122C99.6588 15.9111 100.299 16.6274 101.611 16.6274C102.842 16.6274 103.695 16.188 104.17 15.3413V5.70996H107.846V19.311H104.401L104.302 17.9443Z" fill="black"/>
<path d="M116.376 9.12744C115.868 9.04541 115.424 9.01318 115.063 9.01318C113.67 9.01318 112.751 9.48486 112.324 10.4282V19.311H108.666V5.70996H112.127L112.226 7.3374C112.964 6.08496 113.98 5.4668 115.277 5.4668C115.687 5.4668 116.064 5.51514 116.425 5.62939L116.376 9.12744Z" fill="black"/>
<path d="M122.512 19.5718C120.493 19.5718 118.853 18.9536 117.589 17.7334C116.326 16.5132 115.703 14.8857 115.703 12.8364V12.4951C115.703 11.1123 115.965 9.89209 116.49 8.81836C117.015 7.74463 117.77 6.91406 118.755 6.32812C119.722 5.75977 120.838 5.4668 122.101 5.4668C123.972 5.4668 125.448 6.05273 126.515 7.22314C127.597 8.39502 128.139 10.0547 128.139 12.2183V13.6978H119.41C119.526 14.5767 119.87 15.293 120.477 15.8291C121.068 16.3667 121.823 16.6436 122.741 16.6436C124.152 16.6436 125.251 16.1221 126.038 15.1143L127.859 17.1152C127.302 17.896 126.563 18.498 125.612 18.9214C124.677 19.3433 123.644 19.5718 122.512 19.5718ZM122.084 8.41113C121.363 8.41113 120.772 8.65576 120.312 9.12744C119.854 9.61523 119.574 10.314 119.444 11.209H124.53V10.9321C124.53 10.1191 124.299 9.50098 123.873 9.06152C123.463 8.62207 122.857 8.41113 122.084 8.41113Z" fill="black"/>
<path d="M135.702 15.5537C135.702 15.1143 135.487 14.7715 135.045 14.5122C134.585 14.2515 133.879 14.0244 132.896 13.8281C129.631 13.1455 128.007 11.7627 128.007 9.6958C128.007 8.4917 128.516 7.48389 129.516 6.6709C130.533 5.87256 131.862 5.4668 133.486 5.4668C135.225 5.4668 136.62 5.87256 137.653 6.68701C138.703 7.5 139.228 8.5415 139.228 9.84228H135.57C135.57 9.32227 135.39 8.89893 135.045 8.55762C134.717 8.21631 134.191 8.05371 133.47 8.05371C132.847 8.05371 132.371 8.2002 132.042 8.47559C131.698 8.75244 131.533 9.09375 131.533 9.51709C131.533 9.92432 131.732 10.2495 132.109 10.4941C132.502 10.7373 133.141 10.9497 134.06 11.1284C134.98 11.3232 135.734 11.5181 136.357 11.7466C138.309 12.4453 139.277 13.6655 139.277 15.4072C139.277 16.6436 138.735 17.6514 137.653 18.416C136.586 19.1807 135.193 19.5718 133.502 19.5718C132.354 19.5718 131.32 19.3594 130.434 18.9697C129.55 18.5625 128.844 17.9941 128.335 17.2939C127.827 16.5776 127.581 15.813 127.581 14.9839H131.059C131.091 15.6343 131.32 16.1382 131.78 16.481C132.223 16.8223 132.814 16.9849 133.569 16.9849C134.274 16.9849 134.816 16.8545 135.177 16.5937C135.521 16.3345 135.702 15.9756 135.702 15.5537Z" fill="black"/>
<path d="M8.79215 41.9575C7.0201 41.9575 5.57644 41.4214 4.46115 40.3477C3.34585 39.2725 2.78821 37.8252 2.78821 36.0352V35.71C2.78821 34.522 3.03375 33.4321 3.49377 32.4888C3.96858 31.5454 4.6416 30.813 5.49508 30.293C6.36483 29.7715 7.34848 29.5122 8.4475 29.5122C10.1042 29.5122 11.4014 30.0322 12.3525 31.0737C13.3036 32.1152 13.7799 33.5786 13.7799 35.4668V36.7837H6.069C6.1681 37.5645 6.495 38.1987 7.0201 38.6719C7.54521 39.1436 8.21823 39.3706 9.02142 39.3706C10.2684 39.3706 11.2372 38.9312 11.925 38.0361L13.5166 39.8101C13.0418 40.4766 12.385 41.0142 11.5478 41.3877C10.7284 41.7627 9.80981 41.9575 8.79215 41.9575ZM8.43123 32.1152C7.79223 32.1152 7.26712 32.3262 6.87367 32.7656C6.47873 33.189 6.21692 33.8071 6.11781 34.604H10.613V34.3433C10.5967 33.6284 10.4 33.0908 10.0228 32.7012C9.64562 32.3101 9.12052 32.1152 8.43123 32.1152ZM8.67677 24.6958H12.2046L9.12052 28.1294H6.47873L8.67677 24.6958Z" fill="black"/>
<path d="M18.6686 39.3706C19.2588 39.3706 19.735 39.208 20.1122 38.8989C20.4731 38.5576 20.6699 38.1343 20.7024 37.5981H23.7214C23.7214 38.4111 23.4906 39.1597 23.0484 39.8262C22.6046 40.5103 22.0144 41.0303 21.2438 41.4038C20.4894 41.7788 19.6359 41.9575 18.7174 41.9575C16.9779 41.9575 15.617 41.4214 14.6156 40.314C13.6157 39.2241 13.1232 37.7271 13.1232 35.8081V35.5796C13.1232 33.7412 13.6157 32.2617 14.5994 31.1719C15.6008 30.0645 16.9616 29.5122 18.6848 29.5122C20.1936 29.5122 21.408 29.9517 22.3265 30.7969C23.2451 31.6597 23.7051 32.7817 23.7214 34.2129H20.7024C20.6699 33.5786 20.4731 33.0908 20.1122 32.7012C19.735 32.3101 19.2425 32.1152 18.636 32.1152C17.8802 32.1152 17.3225 32.3921 16.9291 32.9282C16.5519 33.4819 16.3551 34.3594 16.3551 35.5796V35.9048C16.3551 37.1426 16.5356 38.0361 16.9128 38.5737C17.3063 39.1099 17.8802 39.3706 18.6686 39.3706Z" fill="black"/>
<path d="M23.0646 35.6294C23.0646 34.4414 23.2939 33.3838 23.7702 32.4565C24.2287 31.5132 24.8855 30.7969 25.7552 30.2769C26.625 29.7715 27.6412 29.5122 28.7905 29.5122C30.4146 29.5122 31.7592 30.0161 32.7931 31.0093C33.8093 32.001 34.401 33.3516 34.5149 35.0435L34.5474 35.8564C34.5474 37.6948 34.0238 39.1758 32.9898 40.2979C31.9559 41.4038 30.5611 41.9575 28.8068 41.9575C27.0673 41.9575 25.6724 41.4038 24.6237 40.2979C23.5897 39.1919 23.0646 37.6787 23.0646 35.7759V35.6294ZM26.3129 35.8564C26.3129 36.9961 26.5259 37.8735 26.9519 38.4756C27.3794 39.0776 28.0021 39.3706 28.8068 39.3706C29.5937 39.3706 30.2001 39.0776 30.6439 38.4917C31.0862 37.8896 31.3006 36.9302 31.3006 35.6294C31.3006 34.5059 31.0862 33.6445 30.6439 33.0425C30.2001 32.4243 29.5774 32.1152 28.7905 32.1152C28.0021 32.1152 27.3794 32.4243 26.9519 33.0264C26.5259 33.6284 26.3129 34.5879 26.3129 35.8564Z" fill="black"/>
<path d="M37.5176 29.7393L37.6152 31.1221C38.4687 30.0483 39.6343 29.5122 41.0942 29.5122C42.3737 29.5122 43.3248 29.8857 43.9653 30.6343C44.588 31.3828 44.9001 32.5049 44.9164 33.9858V41.7466H41.6844V34.0664C41.6844 33.3838 41.5365 32.896 41.2407 32.5869C40.9463 32.2778 40.4538 32.1152 39.7482 32.1152C38.8296 32.1152 38.1566 32.5049 37.6981 33.2695V41.7466H34.4824V29.7393H37.5176Z" fill="black"/>
<path d="M44.8661 35.6294C44.8661 34.4414 45.0968 33.3838 45.5554 32.4565C46.0154 31.5132 46.6884 30.7969 47.5567 30.2769C48.4264 29.7715 49.4441 29.5122 50.5919 29.5122C52.2161 29.5122 53.5444 30.0161 54.5783 31.0093C55.6122 32.001 56.1861 33.3516 56.3178 35.0435L56.3341 35.8564C56.3341 37.6948 55.8252 39.1758 54.775 40.2979C53.7426 41.4038 52.364 41.9575 50.6082 41.9575C48.8539 41.9575 47.4591 41.4038 46.4251 40.2979C45.3912 39.1919 44.8661 37.6787 44.8661 35.7759V35.6294ZM48.0981 35.8564C48.0981 36.9961 48.3125 37.8735 48.7548 38.4756C49.1808 39.0776 49.805 39.3706 50.6082 39.3706C51.3789 39.3706 51.9868 39.0776 52.4291 38.4917C52.8728 37.8896 53.1021 36.9302 53.1021 35.6294C53.1021 34.5059 52.8728 33.6445 52.4291 33.0425C51.9868 32.4243 51.3789 32.1152 50.5919 32.1152C49.805 32.1152 49.1808 32.4243 48.7548 33.0264C48.3125 33.6284 48.0981 34.5879 48.0981 35.8564Z" fill="black"/>
<path d="M59.3693 29.7393L59.4669 31.0737C60.3204 30.0322 61.4845 29.5122 62.9444 29.5122C64.5035 29.5122 65.57 30.1304 66.1602 31.3506C67.0136 30.1304 68.228 29.5122 69.7856 29.5122C71.0976 29.5122 72.0827 29.9019 72.7217 30.6504C73.3622 31.415 73.6906 32.5547 73.6906 34.084V41.7466H70.4423V34.084C70.4423 33.3999 70.2944 32.9121 70.0326 32.603C69.7693 32.2778 69.293 32.1152 68.6052 32.1152C67.6364 32.1152 66.9811 32.5708 66.6039 33.498L66.6202 41.7466H63.3882V34.1001C63.3882 33.3999 63.2403 32.896 62.9622 32.5869C62.6826 32.2778 62.2226 32.1152 61.5511 32.1152C60.6325 32.1152 59.9758 32.4888 59.566 33.2534V41.7466H56.334V29.7393H59.3693Z" fill="black"/>
<path d="M77.5779 41.7466H74.3296V29.7393H77.5779V41.7466ZM74.1492 26.6323C74.1492 26.1445 74.3134 25.7534 74.6417 25.4443C74.9538 25.1353 75.3961 24.9727 75.9537 24.9727C76.5114 24.9727 76.9551 25.1353 77.2672 25.4443C77.5941 25.7534 77.7746 26.1445 77.7746 26.6323C77.7746 27.1201 77.5941 27.5112 77.2672 27.8203C76.9389 28.1294 76.4951 28.292 75.9537 28.292C75.4124 28.292 74.9864 28.1294 74.6417 27.8203C74.3134 27.5112 74.1492 27.1201 74.1492 26.6323Z" fill="black"/>
<path d="M83.8125 41.9575C82.0405 41.9575 80.5968 41.4214 79.4815 40.3477C78.3662 39.2725 77.8086 37.8252 77.8086 36.0352V35.71C77.8086 34.522 78.0541 33.4321 78.5127 32.4888C78.989 31.5454 79.662 30.813 80.5155 30.293C81.3837 29.7715 82.3689 29.5122 83.4679 29.5122C85.1246 29.5122 86.4203 30.0322 87.3714 31.0737C88.324 32.1152 88.7988 33.5786 88.7988 35.4668V36.7837H81.0894C81.187 37.5645 81.5154 38.1987 82.0405 38.6719C82.5656 39.1436 83.2386 39.3706 84.0418 39.3706C85.2887 39.3706 86.2561 38.9312 86.9454 38.0361L88.537 39.8101C88.0607 40.4766 87.4054 41.0142 86.5682 41.3877C85.7473 41.7627 84.8287 41.9575 83.8125 41.9575ZM83.4516 32.1152C82.8111 32.1152 82.286 32.3262 81.8926 32.7656C81.4991 33.189 81.2373 33.8071 81.1219 34.604H85.6334V34.3433C85.6008 33.6284 85.4204 33.0908 85.0432 32.7012C84.6645 32.3101 84.1409 32.1152 83.4516 32.1152Z" fill="black"/>
<path d="M95.1977 38.4272C95.1977 38.0361 95.0009 37.7271 94.606 37.5C94.2125 37.2715 93.5898 37.0767 92.7201 36.8818C89.849 36.2959 88.4053 35.0757 88.4053 33.2534C88.4053 32.1958 88.8491 31.3008 89.7514 30.5859C90.6359 29.8696 91.8015 29.5122 93.2289 29.5122C94.7702 29.5122 96.0008 29.8696 96.9194 30.5859C97.8542 31.3008 98.3143 32.2456 98.3143 33.3838H95.066C95.066 32.9282 94.9181 32.5547 94.6223 32.2617C94.3279 31.9526 93.8516 31.8062 93.2289 31.8062C92.6875 31.8062 92.26 31.9189 91.9657 32.1636C91.6698 32.4082 91.5219 32.7173 91.5219 33.0908C91.5219 33.4482 91.6861 33.7412 92.0308 33.9697C92.3754 34.1807 92.9493 34.3594 93.754 34.522C94.5572 34.686 95.2302 34.8647 95.7878 35.0596C97.4933 35.6777 98.3305 36.7515 98.3305 38.2969C98.3305 39.3867 97.8705 40.2656 96.9194 40.9482C95.9846 41.6162 94.7539 41.9575 93.2452 41.9575C92.2275 41.9575 91.3415 41.7788 90.5546 41.4214C89.7676 41.0625 89.1434 40.5747 88.7012 39.9404C88.2574 39.3223 88.0281 38.6543 88.0281 37.9233H91.0797C91.1122 38.4917 91.3415 38.9312 91.7364 39.2241C92.1299 39.5332 92.655 39.6797 93.3102 39.6797C93.9345 39.6797 94.4093 39.5654 94.7214 39.3384C95.0335 39.0938 95.1977 38.8008 95.1977 38.4272Z" fill="black"/>
<path d="M98.5761 40.1675C98.5761 39.6636 98.7566 39.2402 99.1012 38.9312C99.4621 38.606 99.8896 38.4434 100.413 38.4434C100.938 38.4434 101.382 38.606 101.71 38.9312C102.071 39.2402 102.236 39.6636 102.236 40.1675C102.236 40.6729 102.071 41.0786 101.727 41.3877C101.382 41.6968 100.955 41.8594 100.413 41.8594C99.8896 41.8594 99.4459 41.6968 99.1012 41.3877C98.7566 41.0786 98.5761 40.6729 98.5761 40.1675Z" fill="#49BD72"/>
<path d="M108.124 39.3706C108.714 39.3706 109.207 39.208 109.568 38.8989C109.945 38.5576 110.142 38.1343 110.158 37.5981H113.193C113.177 38.4111 112.948 39.1597 112.504 39.8262C112.062 40.5103 111.471 41.0303 110.699 41.4038C109.945 41.7788 109.109 41.9575 108.173 41.9575C106.451 41.9575 105.073 41.4214 104.073 40.314C103.071 39.2241 102.579 37.7271 102.579 35.8081V35.5796C102.579 33.7412 103.071 32.2617 104.056 31.1719C105.056 30.0645 106.419 29.5122 108.157 29.5122C109.667 29.5122 110.864 29.9517 111.782 30.7969C112.701 31.6597 113.161 32.7817 113.193 34.2129H110.158C110.142 33.5786 109.945 33.0908 109.568 32.7012C109.207 32.3101 108.714 32.1152 108.092 32.1152C107.337 32.1152 106.78 32.3921 106.385 32.9282C106.007 33.4819 105.811 34.3594 105.811 35.5796V35.9048C105.811 37.1426 106.007 38.0361 106.385 38.5737C106.763 39.1099 107.337 39.3706 108.124 39.3706Z" fill="#49BD72"/>
<path d="M112.52 35.6294C112.52 34.4414 112.751 33.3838 113.226 32.4565C113.686 31.5132 114.359 30.7969 115.211 30.2769C116.097 29.7715 117.098 29.5122 118.246 29.5122C119.886 29.5122 121.215 30.0161 122.249 31.0093C123.283 32.001 123.857 33.3516 123.972 35.0435L124.004 35.8564C124.004 37.6948 123.479 39.1758 122.445 40.2979C121.413 41.4038 120.018 41.9575 118.279 41.9575C116.524 41.9575 115.129 41.4038 114.096 40.2979C113.045 39.1919 112.52 37.6787 112.52 35.7759V35.6294ZM115.768 35.8564C115.768 36.9961 115.983 37.8735 116.409 38.4756C116.851 39.0776 117.459 39.3706 118.279 39.3706C119.049 39.3706 119.657 39.0776 120.099 38.4917C120.543 37.8896 120.772 36.9302 120.772 35.6294C120.772 34.5059 120.543 33.6445 120.099 33.0425C119.657 32.4243 119.033 32.1152 118.246 32.1152C117.459 32.1152 116.851 32.4243 116.409 33.0264C115.983 33.6284 115.768 34.5879 115.768 35.8564Z" fill="#49BD72"/>
<path d="M127.023 29.7393L127.137 31.0737C127.991 30.0322 129.155 29.5122 130.615 29.5122C132.158 29.5122 133.24 30.1304 133.831 31.3506C134.668 30.1304 135.882 29.5122 137.456 29.5122C138.768 29.5122 139.737 29.9019 140.376 30.6504C141.033 31.415 141.345 32.5547 141.345 34.084V41.7466H138.096V34.084C138.096 33.3999 137.965 32.9121 137.685 32.603C137.423 32.2778 136.963 32.1152 136.276 32.1152C135.307 32.1152 134.635 32.5708 134.274 33.498L134.291 41.7466H131.042V34.1001C131.042 33.3999 130.911 32.896 130.631 32.5869C130.353 32.2778 129.877 32.1152 129.221 32.1152C128.303 32.1152 127.63 32.4888 127.22 33.2534V41.7466H124.004V29.7393H127.023Z" fill="#49BD72"/>
</svg>
