<svg width="30" height="30" viewBox="0 0 30 30" fill="none" xmlns="http://www.w3.org/2000/svg">
<path d="M28.33 21.56V25.56C28.33 25.9313 28.26 26.2989 28.11 26.6391C27.96 26.9793 27.74 27.2848 27.47 27.5358C27.2 27.7868 26.87 27.9779 26.52 28.0969C26.17 28.2159 25.8001 28.2601 25.4301 28.2266C21.3201 27.7808 17.3801 26.3788 13.9201 24.1333C10.7001 22.0862 7.97005 19.3549 5.92005 16.1333C3.67005 12.6549 2.25997 8.69463 1.82997 4.57333C1.78997 4.20463 1.83997 3.83303 1.95997 3.48213C2.06997 3.13133 2.26002 2.80893 2.51002 2.53553C2.76002 2.26203 3.07005 2.04363 3.41005 1.89403C3.74005 1.74443 4.10999 1.66703 4.47999 1.66663H8.47999C9.12999 1.66033 9.75001 1.88943 10.25 2.31133C10.74 2.73333 11.06 3.31923 11.15 3.96003C11.32 5.24013 11.63 6.49693 12.08 7.70663C12.26 8.18393 12.3 8.70253 12.19 9.20113C12.09 9.69983 11.84 10.1574 11.48 10.52L9.79005 12.2133C11.6801 15.5514 14.45 18.3152 17.79 20.2133L19.48 18.52C19.84 18.1615 20.3001 17.9144 20.8001 17.8081C21.3001 17.7018 21.8201 17.7406 22.2901 17.92C23.5001 18.3714 24.7601 18.6845 26.0401 18.8533C26.6901 18.9447 27.28 19.2709 27.7 19.77C28.12 20.269 28.35 20.9061 28.33 21.56Z" stroke="black" stroke-width="2" stroke-linecap="round" stroke-linejoin="round"/>
</svg>
