<svg xmlns="http://www.w3.org/2000/svg" width="24.403" height="20.167" viewBox="0 0 24.403 20.167">
  <path id="Tracé_121" data-name="Tracé 121" d="M5126.208,40.4c-.32-.082,1.132-1.538.439-1.616a7.776,7.776,0,0,0-2.617.375,1.382,1.382,0,0,1-1.248-.21,5.332,5.332,0,0,0-8.412,3.036c-.145.548.03,1.14-.281,1.649a1.861,1.861,0,0,1-.94.049,11.5,11.5,0,0,1-2.829-.925,15.2,15.2,0,0,1-4.575-3.428c-.533-.582-1.107-.481-1.437.24a4.748,4.748,0,0,0-.384,3.238,5.735,5.735,0,0,0,.6,1.7,2.012,2.012,0,0,0-.6,1.83,5.888,5.888,0,0,0,1.682,3.065.16.16,0,0,0,.115.055l-.054.061c-.351.909.238,1.559.659,2.228a17.111,17.111,0,0,0,2.048,2.008,1.748,1.748,0,0,1-.995.662,9.148,9.148,0,0,1-3.241.338,1.609,1.609,0,0,0-.767.114c-.374.192-.464.429-.231.767a2.547,2.547,0,0,0,.879.708,13.636,13.636,0,0,0,8.647,1.562,13.959,13.959,0,0,0,6.119-2.273c4.12-2.731,5.848-6.76,6.173-11.528a1.047,1.047,0,0,1,.3-.77c.567-.551,1.491-1.811,2.018-2.4C5127.732,40.429,5127.04,40.611,5126.208,40.4Z" transform="translate(-5103.019 -37.864)" fill="#343434"/>
</svg>
